<svg xmlns="http://www.w3.org/2000/svg" version="1.1" xmlns:xlink="http://www.w3.org/1999/xlink" xmlns:svgjs="http://svgjs.dev/svgjs" width="750" height="515" viewBox="0 0 312 312" class="svg-animations " style="background: rgb(31, 23, 23);"><svg viewBox="0 0 258.0153503417969 265.00115966796875" width="75" height="75" style="fill: rgb(90, 237, 131);" x="118.5" y="89.76213550567627"><svg xmlns="http://www.w3.org/2000/svg" viewBox="0 0 487.5 491.25"><path d="m482.5,434.9h-22.95c1.34-2.01,2.42-4.24,3.21-6.66,4.21-6.22,6.47-13.56,6.46-21.08v-242.79c-.03-20.85-16.94-37.74-37.79-37.74h-44.39v-11.15c0-31.95-22.87-43.06-23.87-43.52-1.52-.71-3.29-.62-4.72.25-25.45,15.43-24.31,40.95-24.06,44.14v10.4h-6.14c-2.13-19.73-6.97-38.84-14.27-55.79-14.16-32.81-37.36-57.16-67.16-70.42-.44-.18-.9-.28-1.36-.33-1.1-.32-2.31-.3-3.43.21-29.81,13.23-53.06,37.57-67.24,70.4-7.34,17-12.21,36.15-14.35,55.93h-6.04v-10.39c.25-3.14,1.39-28.71-24.06-44.14-1.43-.87-3.2-.96-4.72-.25-.97.46-23.86,11.57-23.86,43.52v11.14h-42.01c-.43.02-41.43,2.32-41.43,44.88v235.65c.01,10.97,4.7,20.85,12.18,27.74H5c-2.76,0-5,2.24-5,5v13.61c.02,20.83,16.91,37.72,37.74,37.74h412.31c20.75-.1,37.51-16.99,37.45-37.74v-13.61c0-2.76-2.24-5-5-5Zm-425.92,0c-5.27-1.93-9.46-7.33-11.48-11.48-5.75-11.82-4.89-25.92,2.25-36.08,7.14-10.16,18.59-15.65,31.39-15.09,12.7.38,24.32,7.25,30.77,18.19.28.49.64.92,1.07,1.28,2.1,1.8,5.25,1.55,7.05-.54,10.54-12.3,27.27-8.35,34.74-5.72-.89,4.62-1.38,10.68.2,16.5.6,2.18,2.57,3.68,4.83,3.68l-.03-.02c.44,0,.88-.06,1.3-.17,2.66-.72,4.24-3.47,3.52-6.14-1.4-5.14-.4-10.9.55-14.49.17-.32.31-.66.41-1.03,6.07-22.46,25.01-25.7,33.74-25.97v40.92c-6.56,2.58-13.13,6.7-18.75,13.16-.79.91-1.23,2.07-1.23,3.28,0,2.76,2.23,5,5,5,1.45,0,2.83-.63,3.78-1.72,4.92-5.66,10.91-9.06,16.84-11.06.6-.08,1.16-.26,1.67-.52,12.66-3.72,24.59-1.38,24.81-1.33,2.7.57,5.36-1.16,5.93-3.86.57-2.7-1.16-5.36-3.86-5.93-.77-.16-11.46-2.32-24.19.12v-41.99c.02-.13.07-.26.08-.39.05-.49,0-.95-.08-1.41v-51.77h19.06v52.21c0,2.76,2.24,5,5,5s5-2.24,5-5v-25.65c2.82,1.58,6.07,2.5,9.53,2.5,10.76-.04,19.46-8.77,19.47-19.53v-9.53h18.2v61.4c-8.21,2.99-14.03,7.12-18.15,11.51v-26.15c0-2.76-2.24-5-5-5s-5,2.24-5,5v49.94c0,2.76,2.24,5,5,5,2.47,0,4.51-1.79,4.91-4.15.07-.33.11-.67.11-1.02,0-2,.7-19.75,24.83-26.82,2.41-.7,4.86-1.26,7.33-1.68,13.8-2.35,26.16.94,36.78,9.78,4.61,4.34,8.5,9.38,11.55,14.93.88,1.61,2.56,2.61,4.39,2.61.84,0,1.66-.23,2.39-.64,2.42-1.32,3.32-4.36,2-6.78-3.06-5.58-6.87-10.7-11.3-15.25,3.04-7.43,13.71-27.2,40.01-24.58,31.29,3.13,31.81,36.31,31.81,37.71,0,.3.03.6.08.89.5,2.72,3.1,4.52,5.82,4.02,4.68-.66,9.43-.51,14.06.43,9.4,2.01,15.62,7.45,18.4,16.1.24.82,5.9,20.06-8.31,27.34H56.58Zm95.7,10h181.86v6.85c0,3.19-2.59,5.77-5.78,5.78h-170.3c-3.19,0-5.77-2.59-5.78-5.78v-6.85Zm16.26-227.59c-3.82,1.29-9.09,3.71-14.14,8.1v-42.23h7.22c1.54,10.97,3.82,22.26,6.92,34.13Zm-55.2,72.1c-.68-.15-1.38-.14-2.07,0h-7.82l6.67-20.92h28.66v20.92h-25.44Zm31.06-50.97c-2.65,5.34-4.61,11.92-5.32,20.04h-27.32v-116.23h32.64v96.19Zm-30.05,60.97h24.43v24.96c0,1.73.9,3.34,2.37,4.25.79.49,1.7.75,2.63.75.77,0,1.54-.17,2.23-.51l1.31-.65c-2.96,8.85-9.07,18.27-18.28,28.13-13.63-14.67-20.65-28.74-20.34-40.87.21-8.31,3.71-13.7,5.65-16.06Zm38.82,14.69c-.79.19-1.53.54-2.13,1.07l-2.26,1.13v-50.93c0-27.37,14.95-35.92,22.4-38.48,5.75,19.85,13.73,41.48,24.26,66.08l-42.26,21.14Zm111.78-43.45h28.43c-2.29,6.12-4.73,12.39-7.34,18.81h-21.09v-18.81Zm62.13-87.47h7.31v40.83c-5.14-4.13-10.32-6.22-13.7-7.24,2.81-11.63,4.93-22.79,6.39-33.59Zm46.2,155.25c-8.97.86-16.14,4.01-21.81,8.09-4.91-6.62-8.36-12.99-10.28-19.08l2.8,1.4c.69.35,1.46.53,2.23.53v-.02c2.76,0,5-2.24,5-5v-24.94h23.08c3.31,3.96,11.51,17.17-1.02,39.02Zm-38.25,28.06c-11.72-7.8-25-10.48-39.55-8-.78.13-1.56.28-2.33.43v-55.55l36.54,18.3c1.28,10.08,6.08,20.66,14.3,31.54-4.23,4.65-7.12,9.53-8.95,13.27Zm-80.08-55.14c-.42,5.25-5.01,9.16-10.26,8.74-4.78-.38-8.45-4.24-8.74-8.89v-1.36s0,0,0,0v-10.43h19v10.43c.04.5.04,1.01,0,1.51Zm123.82-42.86l6.68,20.92h-8.83c-.22,0-.43-.02-.64,0h-24.76v-20.92h27.55Zm-1.71-10h-26.13c-.81-9.49-3.28-16.89-6.54-22.65v-93.59h32.67v116.24Zm-58.84-32.03c3.6,1.06,6.97,2.83,9.89,5.22,8.7,6.99,13.11,18.32,13.11,33.67v50.93l-4.04-2.03c-.37-.25-.76-.46-1.19-.6l-40.64-20.41c9.8-24.17,17.38-46.23,22.88-66.78Zm-63.27,63h-19v-52.26c0-5.26,4.27-9.52,9.53-9.53,5.24.04,9.46,4.29,9.47,9.53v52.26Zm-29,0h-21.14c-2.77-6.47-5.37-12.74-7.79-18.81h28.93v18.81Zm205.52-152.83c15.32.01,27.73,12.42,27.75,27.74v232.49c-8.33-13.63-23.91-16.74-34.8-16.23-.72-5.69-2.25-11.24-4.54-16.49-4.64-10.44-14.54-23.31-35.34-25.59,6.93-14.5,6.11-25.85,3.93-33.17-.58-2.07-1.36-4.07-2.32-5.97h6.14c.51,0,1.03-.08,1.52-.24,2.63-.84,4.08-3.65,3.24-6.28l-9.86-30.9c-.02-.08-.05-.17-.08-.25-.02-.05-.05-.1-.07-.15v-124.96h44.43Zm-70.28-54.26c4.87,3.3,15.87,13.01,15.87,33.12v16.76h-32.67v-16.61c-.5-13.24,5.85-25.81,16.8-33.27Zm-26.8,54.38v36.43h-6.13c.41-4.12.73-8.19.94-12.22.43-8.06.39-16.17-.1-24.21h5.29ZM244.3,10.4c21.64,10.03,39,25.93,51.77,47.43l-103.25-.39c12.73-21.3,29.99-37.07,51.48-47.03Zm-60.33,64.34c1.08-2.51,2.24-4.94,3.42-7.33l114.08.43c1.13,2.3,2.24,4.64,3.28,7.06,10.89,25.28,16.01,55.66,14.41,85.54-1.6,29.87-8.72,62.29-22.14,100.2h-32.07v-23.45c.04-.72.04-1.44,0-2.16-.6-10.77-9.81-19.02-20.58-18.42-10.77.6-19.02,9.81-18.42,20.58v23.45h-32.81c-14.83-39.09-22.07-70.26-23.69-100.32-1.56-29.9,3.59-60.29,14.52-85.58Zm-24.38,62c-.49,8.02-.54,16.1-.12,24.14.21,4.07.53,8.17.95,12.29h-6.02v-36.43h5.19Zm-31.97-54.39c10.99,7.43,17.34,20.02,16.78,33.27,0,.17,0,.34,0,.51v16.11h-32.64v-16.77c0-20.18,10.98-29.83,15.86-33.12ZM28.32,407.16v-235.64c0-13.77,5.21-23.82,15.5-29.77,5.01-2.83,10.56-4.58,16.29-5.12h41.65v125.21c-.02.05-.04.1-.06.15l-9.86,30.9c-.49,1.52-.22,3.18.72,4.47.93,1.28,2.42,2.04,4,2.05h6.02c-1.95,3.91-3.66,9.07-3.87,15.45-.55,16.19,8.37,33.66,26.51,51.94,1.01,1.03,2.39,1.61,3.83,1.61h.46c1.34-.13,2.58-.75,3.48-1.74,15.27-15.38,24-30.25,25.99-44.28l37.91-18.91v44.28c-13.35.25-33.25,6.31-41.67,28.15-4.03-1.36-8.2-2.29-12.43-2.77-11.13-1.26-20.73,1.2-28.13,7.12-8.6-10.91-21.56-17.49-35.44-18-15.77-.86-30.89,6.42-40.05,19.29-8.63,12.27-10.2,29.1-4.26,43.54-4.1-4.83-6.58-11.09-6.59-17.92Zm449.18,46.35c.06,15.23-12.22,27.64-27.45,27.74H37.74c-15.29-.04-27.67-12.45-27.69-27.74v-8.61h132.23v6.85c0,8.71,7.07,15.78,15.78,15.79h170.3c8.71-.01,15.77-7.08,15.78-15.79v-6.85h133.36v8.61Z"></path><path d="m243.99,197.75c30.67-.03,55.52-24.88,55.55-55.55v-.02c0-30.68-24.89-55.56-55.57-55.55-30.68,0-55.56,24.89-55.55,55.57s24.89,55.56,55.57,55.55Zm0-101.11v-.04c25.16.03,45.54,20.44,45.55,45.6h0c0,25.17-20.41,45.57-45.57,45.56-25.16,0-45.56-20.41-45.55-45.57s20.41-45.56,45.57-45.55Z"></path><path d="m276.73,194.34c-.11.1-11.76,9.71-31.26,9.71-23.14,0-31.65-7.41-31.94-7.67-1.93-1.75-4.88-1.72-6.78.06-2.01,1.89-2.11,5.06-.22,7.07,1.08,1.08,11.34,10.54,38.95,10.54,23.37,0,37.18-11.6,37.74-12.1,2.1-1.79,2.35-4.95.56-7.05-1.79-2.1-4.95-2.35-7.05-.56Z"></path><path d="m230.95,362.05c-2.76,0-5,2.24-5,5v3.63c0,2.76,2.24,5,5,5s5-2.24,5-5v-3.63c0-2.76-2.24-5-5-5Z"></path><path d="m361.7,174.1c2.76,0,4.99-2.23,5-4.99v-6.36c0-2.76-2.24-5-5-5s-5,2.24-5,5v6.35c0,2.76,2.24,5,5,5Z"></path><path d="m127.43,174.1c2.76,0,4.99-2.23,5-4.99v-6.36c0-2.76-2.24-5-5-5s-5,2.24-5,5v6.35c0,2.76,2.24,5,5,5Z"></path></svg></svg><text fill="#5aed83" font-family="Lucida Console" font-size="32px" x="76.37954711914062" y="190.0048532300782"><tspan dy="0" x="76.37954711914062">Mateu.py</tspan></text><text fill="#55a162" font-family="Monaco" font-size="16px" x="126.31851577758789" y="218.70388412475586"><tspan dy="0" x="126.31851577758789">Dev Web</tspan></text></svg>